<svg xmlns="http://www.w3.org/2000/svg" viewBox="0 0 512 512"><title>Sneaker</title><g id="Sneaker"><path d="M392.5732,238.5248l-132.979-59.5927c-11.58-5.1885-25.7426-1.85-32.9428,7.77l-8.5166,11.377c-8.8706,11.85-23.9878,18.9238-40.4385,18.9238H165.24a54.1847,54.1847,0,0,1-21.0973-4.2329l-4.1424-1.9853c-8.85-4.734-15.8681-11.9139-19.561-20.6612-5.4707-12.9595-9.8409-13.9732-21.9507-13.7534-1.5142.0278-3.2115.06-5.127.06H82.6211a5.5,5.5,0,0,0-5.5,5.5V330.1747a5.5,5.5,0,0,0,5.5,5.5H429.3789a5.5,5.5,0,0,0,5.5-5.5V299.03C434.8789,273.3251,418.6636,250.1391,392.5732,238.5248Zm-4.4858,10.0435c21.75,9.6819,35.3729,28.5936,35.7725,49.5166H133.3442a95.2711,95.2711,0,0,1,16.7745-6.7207,160.3467,160.3467,0,0,1,20.9467-4.7295c19.4942-3.1377,42.7945-3.896,69.25-2.2549,50.6353,3.1441,87.9575-7.6191,110.3511-17.2007,18.1319-7.7587,29.634-15.9373,34.6119-19.8694ZM88.1211,187.4291l18.3852.3985c1.1963.66,2.7413,4.0678,3.7994,6.5737a53.1261,53.1261,0,0,0,21.8054,24.5113c-15.5944,25.6345-35.4249,27.7466-43.99,27.2977Zm0,69.7508c.5622.02,1.1524.032,1.771.032a52.6658,52.6658,0,0,0,14.4023-2.03c10.7037-3.0523,25.5921-11.02,37.7395-31.44a65.1183,65.1183,0,0,0,23.2063,4.2605h12.4561c19.8984,0,38.3076-8.7222,49.2441-23.3321l8.5166-11.3769c4.126-5.51,12.753-7.4092,19.6387-4.3232l31.2307,13.9955L267.4517,224.97a5.5,5.5,0,0,0,8.35,7.1621l20.9939-24.4746L321.5936,218.77l-18.6014,21.6854a5.5,5.5,0,0,0,8.35,7.1621l20.7206-24.156,41.68,18.6782a156.31,156.31,0,0,1-27.9362,15.1536c-21.2168,8.9995-56.6246,19.0981-104.8086,16.1079-27.2676-1.6938-51.3838-.8936-71.68,2.3731a171.2824,171.2824,0,0,0-22.3936,5.0644c-19.4811,5.9136-28.7592,13.4237-32.48,17.2461H88.1211Zm335.7578,67.4948H88.1211v-15.59H423.8789Z"/></g></svg>